# xmcd
#
# Track frame offsets:
#	150
#	12655
#	24100
#	35984
#	45952
#	57411
#	68327
#	80736
#	89632
#	103221
#	113209
#	124654
#	136078
#	147484
#	157109
#	168153
#	179855
#	190244
#	201660
#	212984
#	225117
#	236541
#	248576
#	260243
#	270387
#	282908
#	293362
#	305411
#	315079
#	329865
#
# Disc length: 4584
#
# Revision: 1
# Processed by: cddbd v1.5.1PL0 Copyright (c) Steve Scherf et al.
# Submitted via: EasyCDDAExtractor 4.6.0.1
# Normalized: r0:TDELIM( - )
#
DISCID=bc11e61e
DTITLE=Various Artist - A Million Dollars Worth Of Doo-Wop  Vol 13
DYEAR=1900
DGENRE=Blues
TTITLE0=Teen Kings - Tell Me If You Know
TTITLE1=Original Magnificenes (Jimmy Higgins and the) - Upon The Mountain
TTITLE2=Rhythm Cadets - Dearest Doryce
TTITLE3=Lollypops - Believe In Me
TTITLE4=Corvettes - When You're In Love
TTITLE5=Julie Town and group - Tears On My Pillow
TTITLE6=Coins - Please
TTITLE7=Ramblers - Come On Back
TTITLE8=Raindrops - Dim Those Lights
TTITLE9=Juveniles - Beat In My Heart
TTITLE10=Carlton Beck and group - The Girl I Left Behind
TTITLE11=Knights (Mary Wheeler and the) - A Falling Star
TTITLE12=Angels - I'm Saying Goodbye
TTITLE13=Four Horsemen - My Heartbeat
TTITLE14=Aqua-Nites - Christy
TTITLE15=Poets - Never Let You Go
TTITLE16=Mello-Harps - What Good Are Dreams
TTITLE17=Cruisers - Foolish Me
TTITLE18=Ray-Dots - I Need Someone
TTITLE19=Infatuators - Where Are You
TTITLE20=El Daros - Please Surrender
TTITLE21=Royal Satins (Jimmie Singleton and the) - Each Passing Day
TTITLE22=Shicks - Come On Back
TTITLE23=Charllote Campbell and group - True Lover
TTITLE24=Alladins - Then
TTITLE25=Silhouettes - Bull Frog
TTITLE26=Five Embers - My Fragile Heart
TTITLE27=Globeliters - If I Were A King
TTITLE28=Twilighters - How Many Times
TTITLE29=Vandels - A Small Silver Ring
EXTD=
EXTT0=
EXTT1=
EXTT2=
EXTT3=
EXTT4=
EXTT5=
EXTT6=
EXTT7=
EXTT8=
EXTT9=
EXTT10=
EXTT11=
EXTT12=
EXTT13=
EXTT14=
EXTT15=
EXTT16=
EXTT17=
EXTT18=
EXTT19=
EXTT20=
EXTT21=
EXTT22=
EXTT23=
EXTT24=
EXTT25=
EXTT26=
EXTT27=
EXTT28=
EXTT29=
PLAYORDER=
